Coordinates
version=1
nRows=16
nColumns=34
inDegrees=no

Units are S.I. units (second, meters, Newtons, ...)
If the header above contains a line with 'inDegrees', this indicates whether rotational values are in degrees (yes) or radians (no).

endheader
time	pelvis_tilt	pelvis_list	pelvis_rotation	pelvis_tx	pelvis_ty	pelvis_tz	hip_flexion_r	hip_adduction_r	hip_rotation_r	knee_angle_r	ankle_angle_r	subtalar_angle_r	mtp_angle_r	hip_flexion_l	hip_adduction_l	hip_rotation_l	knee_angle_l	ankle_angle_l	subtalar_angle_l	mtp_angle_l	lumbar_extension	lumbar_bending	lumbar_rotation	arm_flex_r	arm_add_r	arm_rot_r	elbow_flex_r	pro_sup_r	arm_flex_l	arm_add_l	arm_rot_l	elbow_flex_l	pro_sup_l
1.85	-0.5849	-0.00613481	-0.0674553	-0.291768	0.649725	-0.606784	1.62243	-0.109922	0.0730646	1.55593	0.50861	-0.150629	-0.110433	1.65803	-0.0863235	0.15206	1.59134	0.477635	-0.211637	-0.110435	-0.585805	0.0178843	-0.0304188	0.0808301	-0.360818	0.1	0.95224	1.31876	0.106506	-0.452662	0.193058	0.880668	1.25118
1.86	-0.569793	-0.00545844	-0.0684275	-0.288981	0.6549	-0.606899	1.59847	-0.108469	0.0732955	1.54856	0.507361	-0.157736	-0.110421	1.6329	-0.0889719	0.149484	1.58367	0.478039	-0.210844	-0.110423	-0.586045	0.0161805	-0.0272653	0.151839	-0.350911	0.119139	0.937082	1.30951	0.200363	-0.448411	0.2242	0.863822	1.23643
1.87	-0.55429	-0.00471821	-0.0691298	-0.286385	0.660107	-0.606955	1.57376	-0.106878	0.0742119	1.54089	0.506893	-0.164449	-0.11041	1.60725	-0.0915087	0.146663	1.57581	0.478207	-0.21001	-0.110412	-0.585335	0.0143023	-0.0244926	0.223232	-0.341048	0.134166	0.93083	1.30549	0.294451	-0.440588	0.251511	0.854606	1.22663
1.88	-0.538551	-0.00406511	-0.069614	-0.283971	0.665328	-0.606945	1.5483	-0.105013	0.0757053	1.53276	0.507091	-0.170854	-0.110398	1.58118	-0.0938848	0.143827	1.56772	0.478129	-0.209338	-0.1104	-0.583658	0.0123932	-0.0220979	0.294764	-0.331708	0.145287	0.93538	1.30634	0.388169	-0.429703	0.275263	0.854568	1.2214
1.89	-0.522734	-0.00364368	-0.069928	-0.281721	0.670552	-0.606871	1.52213	-0.102748	0.0776336	1.52402	0.507698	-0.177148	-0.110386	1.55478	-0.0960411	0.141205	1.55931	0.477749	-0.209052	-0.110388	-0.580934	0.0106168	-0.0201179	0.366616	-0.323472	0.153374	0.951832	1.31134	0.481277	-0.416464	0.296253	0.86453	1.21996
1.9	-0.507015	-0.00358354	-0.0700997	-0.279608	0.675776	-0.606739	1.4953	-0.0999939	0.0798239	1.51452	0.508335	-0.183601	-0.110375	1.52814	-0.0979092	0.138997	1.55046	0.476967	-0.209349	-0.110377	-0.577019	0.00915727	-0.0185979	0.43934	-0.316962	0.159783	0.980387	1.31967	0.573918	-0.401661	0.315659	0.884524	1.22122
1.91	-0.491613	-0.00398499	-0.070132	-0.277603	0.680995	-0.606562	1.46792	-0.0967224	0.0820871	1.50411	0.508563	-0.190507	-0.110363	1.50138	-0.0994248	0.137344	1.54103	0.475655	-0.210367	-0.110365	-0.57174	0.00820382	-0.0175957	0.513786	-0.31275	0.166132	1.02035	1.33049	0.666536	-0.386104	0.334792	0.913876	1.22384
1.92	-0.476782	-0.00490073	-0.0700088	-0.275668	0.686212	-0.606358	1.44015	-0.0929649	0.0842383	1.49261	0.507944	-0.19813	-0.110352	1.47461	-0.100551	0.136301	1.5308	0.473665	-0.212171	-0.110354	-0.564928	0.00792527	-0.0172013	0.591027	-0.31126	0.174089	1.07024	1.34284	0.759726	-0.370588	0.354811	0.951403	1.22651
1.93	-0.462796	-0.0063222	-0.0697098	-0.273748	0.691445	-0.606152	1.41214	-0.0888063	0.0861098	1.47982	0.506106	-0.20666	-0.11034	1.44793	-0.101304	0.135821	1.51946	0.47086	-0.214745	-0.110342	-0.55643	0.00844855	-0.0175283	0.672215	-0.312694	0.185135	1.12799	1.35569	0.854097	-0.355876	0.376531	0.995635	1.22816
1.94	-0.449963	-0.00818652	-0.0692307	-0.271776	0.696742	-0.60596	1.38411	-0.0843588	0.08756	1.46549	0.502789	-0.216199	-0.110328	1.42145	-0.101772	0.135781	1.5067	0.467126	-0.218012	-0.11033	-0.546085	0.00984156	-0.0186502	0.758384	-0.317027	0.200344	1.19122	1.36789	0.950177	-0.342629	0.400369	1.04498	1.22813
1.95	-0.438632	-0.0104055	-0.068605	-0.269681	0.702169	-0.605781	1.35626	-0.0797183	0.0884813	1.44931	0.497863	-0.226778	-0.110317	1.39532	-0.102124	0.136026	1.49214	0.4624	-0.221866	-0.110319	-0.533709	0.0120979	-0.0205188	0.850261	-0.324042	0.220234	1.25752	1.37829	1.04836	-0.331345	0.426393	1.09782	1.2264
1.96	-0.429162	-0.0128929	-0.0679168	-0.267394	0.707812	-0.605595	1.32876	-0.0749333	0.0888099	1.43094	0.491306	-0.238375	-0.110305	1.36965	-0.102607	0.136415	1.47539	0.456671	-0.226208	-0.110307	-0.519118	0.0151352	-0.0229239	0.948152	-0.333372	0.244753	1.32466	1.3859	1.14882	-0.322312	0.454388	1.15265	1.22359
1.97	-0.421848	-0.0155746	-0.0672952	-0.264849	0.71377	-0.605369	1.30168	-0.0700141	0.0885298	1.40997	0.483158	-0.2509	-0.110294	1.34447	-0.103523	0.136826	1.45604	0.449965	-0.230974	-0.110296	-0.502182	0.0188119	-0.0255233	1.05192	-0.344534	0.273405	1.39076	1.39018	1.25152	-0.315629	0.483899	1.20808	1.22073
1.98	-0.416846	-0.0183865	-0.0668902	-0.261972	0.720159	-0.605065	1.27492	-0.0649713	0.0876633	1.38594	0.473452	-0.264161	-0.110282	1.31963	-0.105183	0.137145	1.43367	0.44231	-0.236144	-0.110284	-0.482889	0.0229588	-0.0279187	1.16102	-0.356943	0.305418	1.45432	1.39122	1.35607	-0.31125	0.514277	1.26301	1.21882
1.99	-0.414137	-0.0212719	-0.0668451	-0.258682	0.727113	-0.604651	1.24813	-0.0598518	0.0862455	1.35827	0.46213	-0.27782	-0.110271	1.29478	-0.107875	0.13724	1.40783	0.433665	-0.241723	-0.110272	-0.461361	0.0274139	-0.0297375	1.27447	-0.369921	0.339886	1.5142	1.38976	1.46171	-0.309026	0.54471	1.31662	1.21849
2	-0.413513	-0.0241888	-0.0672748	-0.254899	0.734808	-0.604096	1.22074	-0.054749	0.0842872	1.32623	0.448942	-0.291354	-0.110259	1.26936	-0.111829	0.136938	1.37798	0.423835	-0.247689	-0.110261	-0.437831	0.032051	-0.0306989	1.39084	-0.382705	0.375867	1.56964	1.38698	1.56729	-0.308768	0.574307	1.36835	1.21986
